<?xml version="1.0" encoding="UTF-8" standalone="no"?>
<svg
   xmlns:dc="http://purl.org/dc/elements/1.1/"
   xmlns:cc="http://creativecommons.org/ns#"
   xmlns:rdf="http://www.w3.org/1999/02/22-rdf-syntax-ns#"
   xmlns:svg="http://www.w3.org/2000/svg"
   xmlns="http://www.w3.org/2000/svg"
   id="svg3711"
   version="1.1"
   viewBox="0 0 2133.0101 2133.5199"
   height="50.012188"
   width="50.000237"
   class="icon">
  <metadata
     id="metadata3717">
    <rdf:RDF>
      <cc:Work
         rdf:about="">
        <dc:format>image/svg+xml</dc:format>
        <dc:type
           rdf:resource="http://purl.org/dc/dcmitype/StillImage" />
        <dc:title></dc:title>
      </cc:Work>
    </rdf:RDF>
  </metadata>
  <defs
     id="defs3715" />
  <path
     id="path3709"
     d="M 2015.3401,1.1083391e-5 H 117.63005 A 117.579,117.579 0 0 0 5.2405035e-5,117.69001 V 2015.83 A 117.586,117.586 0 0 0 117.63005,2133.52 H 1139.3601 V 1306.35 H 860.26005 V 985.44001 h 279.16005 v -237.6 c 0,-275.59 168.15,-424.87 413.94,-424.87 117.73,0 218.92,7.99 248.42,11.91 v 288.13 l -170.48,-0.05 c -133.67,0 -158.64,63.53 -158.64,156.76 v 205.72 h 317.89 l -41.51,320.90999 h -276.38 v 827.17 h 542.68 a 117.639,117.639 0 0 0 117.67,-117.69 V 117.69001 A 117.632,117.632 0 0 0 2015.3401,1.1083391e-5 Z" />
</svg>
