<?xml version="1.0" encoding="UTF-8" standalone="no"?>
<svg
   xmlns:dc="http://purl.org/dc/elements/1.1/"
   xmlns:cc="http://creativecommons.org/ns#"
   xmlns:rdf="http://www.w3.org/1999/02/22-rdf-syntax-ns#"
   xmlns:svg="http://www.w3.org/2000/svg"
   xmlns="http://www.w3.org/2000/svg"
   id="svg111"
   viewBox="0 0 6999.9997 6999.9997"
   style="clip-rule:evenodd;fill-rule:evenodd;image-rendering:optimizeQuality;shape-rendering:geometricPrecision;text-rendering:geometricPrecision"
   version="1.1"
   height="7.0001101in"
   width="7.0001101in"
   xml:space="preserve"><metadata
     id="metadata115"><rdf:RDF><cc:Work
         rdf:about=""><dc:format>image/svg+xml</dc:format><dc:type
           rdf:resource="http://purl.org/dc/dcmitype/StillImage" /><dc:title></dc:title></cc:Work></rdf:RDF></metadata><defs
     id="defs101"><style
       id="style99"
       type="text/css"><![CDATA[
    .fil0 {fill:#282828;fill-rule:nonzero}
   ]]></style></defs><g
     transform="translate(1,12)"
     id="Layer_x0020_1"><metadata
       id="CorelCorpID_0Corel-Layer" /><path
       style="fill:#282828;fill-rule:nonzero"
       id="path104"
       d="M 3412,-12 C 2541,-12 2418,-7 2056,9 1684,26 1429,85 1207,172 977,261 782,381 587,576 392,771 273,966 183,1196 97,1419 37,1673 20,2045 3,2418 -1,2537 -1,3488 c 0,950 4,1069 21,1443 17,372 76,627 163,849 89,230 209,425 404,620 195,195 390,314 620,404 223,86 477,146 849,163 373,17 492,21 1443,21 950,0 1069,-4 1443,-21 372,-17 627,-76 849,-163 230,-89 425,-209 620,-404 195,-195 314,-390 404,-620 86,-223 146,-477 163,-849 16,-362 21,-485 21,-1356 v -173 c 0,-871 -5,-994 -21,-1356 -17,-372 -76,-627 -163,-849 C 6726,967 6606,772 6411,577 6216,382 6021,263 5791,173 5568,87 5314,27 4942,10 4580,-6 4457,-11 3586,-11 h -173 z m 87,630 c 934,0 1045,4 1414,20 341,16 526,73 650,120 163,63 280,139 402,262 122,122 198,239 262,402 48,123 105,309 120,650 17,369 20,480 20,1414 0,934 -4,1045 -20,1414 -16,341 -73,526 -120,650 -63,163 -139,280 -262,402 -122,122 -239,198 -402,262 -123,48 -309,105 -650,120 -369,17 -480,20 -1414,20 -934,0 -1045,-4 -1414,-20 -341,-16 -526,-73 -650,-120 -163,-63 -280,-139 -402,-262 C 911,5830 835,5713 771,5550 723,5427 666,5241 651,4900 634,4531 631,4420 631,3486 c 0,-934 4,-1045 20,-1414 16,-341 73,-526 120,-650 63,-163 139,-280 262,-402 122,-122 239,-198 402,-262 123,-48 309,-105 650,-120 369,-17 480,-20 1414,-20 z"
       class="fil0" /><path
       style="fill:#282828;fill-rule:nonzero"
       id="path106"
       d="m 3499,4654 c -644,0 -1166,-522 -1166,-1166 0,-644 522,-1166 1166,-1166 644,0 1166,522 1166,1166 0,644 -522,1166 -1166,1166 z m 0,-2963 c -992,0 -1797,804 -1797,1797 0,992 804,1797 1797,1797 992,0 1797,-804 1797,-1797 0,-992 -804,-1797 -1797,-1797 z"
       class="fil0" /><path
       style="fill:#282828;fill-rule:nonzero"
       id="path108"
       d="m 5786,1620 c 0,232 -188,420 -420,420 -232,0 -420,-188 -420,-420 0,-232 188,-420 420,-420 232,0 420,188 420,420 z"
       class="fil0" /></g></svg>