<?xml version="1.0" encoding="UTF-8" standalone="no"?>
<svg
   xmlns:dc="http://purl.org/dc/elements/1.1/"
   xmlns:cc="http://creativecommons.org/ns#"
   xmlns:rdf="http://www.w3.org/1999/02/22-rdf-syntax-ns#"
   xmlns:svg="http://www.w3.org/2000/svg"
   xmlns="http://www.w3.org/2000/svg"
   id="svg67"
   version="1.1"
   viewBox="0 0 61 49.998463"
   height="49.998463"
   width="61">
  <metadata
     id="metadata71">
    <rdf:RDF>
      <cc:Work
         rdf:about="">
        <dc:format>image/svg+xml</dc:format>
        <dc:type
           rdf:resource="http://purl.org/dc/dcmitype/StillImage" />
        <dc:title></dc:title>
      </cc:Work>
    </rdf:RDF>
  </metadata>
  <defs
     id="defs64">
    <style
       id="style62">
      .cls-1 {
        fill: #1da1f2;
        fill-rule: evenodd;
      }
    </style>
  </defs>
  <path
     style="fill:#1da1f2;fill-rule:evenodd"
     d="m 19.184,49.998455 c 23.02,0 35.608,-19.234 35.608,-35.913 q 0,-0.82 -0.035,-1.632 a 25.6,25.6 0 0 0 6.243,-6.536 24.8,24.8 0 0 1 -7.187,1.987 12.647,12.647 0 0 0 5.5,-6.98199997 24.945,24.945 0 0 1 -7.947,3.06399997 12.5,12.5 0 0 0 -21.652,8.633 12.683,12.683 0 0 0 0.325,2.878 35.431,35.431 0 0 1 -25.8,-13.187 12.7,12.7 0 0 0 3.874,16.85 12.326,12.326 0 0 1 -5.668,-1.579 c 0,0.053 0,0.106 0,0.161 a 12.6,12.6 0 0 0 10.045,12.375 12.469,12.469 0 0 1 -3.3,0.444 12.315,12.315 0 0 1 -2.353,-0.228 12.543,12.543 0 0 0 11.692,8.765 24.976,24.976 0 0 1 -15.544,5.4 25.378,25.378 0 0 1 -2.985,-0.169 35.212,35.212 0 0 0 19.184,5.669"
     class="cls-1"
     data-name="Logo — FIXED"
     id="Logo_FIXED" />
</svg>
